<?xml version="1.0" encoding="utf-8"?>
<!-- Generator: Adobe Illustrator 16.0.0, SVG Export Plug-In . SVG Version: 6.00 Build 0)  -->
<!DOCTYPE svg PUBLIC "-//W3C//DTD SVG 1.1//EN" "http://www.w3.org/Graphics/SVG/1.1/DTD/svg11.dtd">
<svg version="1.1" id="Layer_1" xmlns="http://www.w3.org/2000/svg" xmlns:xlink="http://www.w3.org/1999/xlink" x="0px" y="0px"
	 width="150px" height="150px" viewBox="0 0 150 150" style="enable-background:new 0 0 150 150;" xml:space="preserve">
<style type="text/css">
<![CDATA[
	.st0{fill:#111144;}
	.st1{fill:#F1F2F2;}
	.st2{fill:#0E1138;}
	.st3{fill:#414042;}
]]>
</style>
<g>
	<path class="st0" d="M139.5,75c0,35.6-28.9,64.5-64.5,64.5c-17.8,0-34-7.2-45.6-18.9C17.7,108.9,10.5,92.8,10.5,75
		s7.2-34,18.9-45.6C41,17.7,57.2,10.5,75,10.5s34,7.2,45.6,18.9C132.3,41,139.5,57.2,139.5,75z"/>
	<g>
		<polygon class="st1" points="46.7,63 52.2,63 49.1,87.5 43.6,87.5 44.9,77.1 36.1,77.1 34.8,87.5 29.3,87.5 32.3,63 37.8,63 
			36.5,73.3 45.4,73.3 		"/>
		<path class="st1" d="M66.6,70c-0.9-0.1-1.7-0.2-2.5-0.2c-1.7,0-3.3,0.3-4.7,0.9c-1.4,0.6-2.7,1.5-3.7,2.5c-1,1.1-1.8,2.3-2.4,3.7
			c-0.6,1.4-0.9,2.9-0.9,4.5c0,1.1,0.1,2,0.4,2.8c0.3,0.8,0.6,1.4,1.1,1.9c0.4,0.5,1,0.9,1.5,1.1c0.6,0.3,1.2,0.4,1.8,0.4
			c1.1,0,2-0.3,2.9-0.8c0.9-0.6,1.7-1.3,2.4-2.3v1.2c0,0.2,0,0.5,0.1,0.7c0.1,0.2,0.1,0.4,0.3,0.5c0.1,0.1,0.3,0.3,0.5,0.3
			c0.2,0.1,0.5,0.1,0.8,0.1H67l2.1-16.9C68.3,70.3,67.5,70.1,66.6,70z M63,78.2c-0.2,0.8-0.4,1.5-0.7,2.1c-0.3,0.7-0.6,1.2-0.9,1.7
			c-0.3,0.5-0.7,0.9-1,1.2c-0.4,0.3-0.7,0.4-1.1,0.4c-0.2,0-0.5-0.1-0.7-0.2c-0.2-0.1-0.4-0.3-0.5-0.5c-0.2-0.2-0.3-0.6-0.4-1
			c-0.1-0.4-0.1-0.9-0.1-1.4c0-1,0.1-1.9,0.4-2.8c0.3-0.9,0.7-1.6,1.2-2.3c0.5-0.7,1.1-1.2,1.8-1.6c0.7-0.4,1.5-0.6,2.3-0.6h0.3
			L63,78.2z"/>
		<polygon class="st1" points="72.7,70.1 77.9,70.1 75.8,87.5 70.6,87.5 		"/>
		<path class="st1" d="M78.6,64.1c0.2,0.4,0.3,0.8,0.3,1.2c0,0.4-0.1,0.8-0.3,1.2c-0.2,0.4-0.4,0.7-0.7,1c-0.3,0.3-0.6,0.5-1,0.7
			c-0.4,0.2-0.8,0.2-1.2,0.2c-0.4,0-0.8-0.1-1.1-0.2c-0.4-0.2-0.7-0.4-1-0.7c-0.3-0.3-0.5-0.6-0.7-1c-0.2-0.4-0.3-0.8-0.3-1.2
			c0-0.4,0.1-0.8,0.3-1.2c0.2-0.4,0.4-0.7,0.7-1c0.3-0.3,0.6-0.5,1-0.7c0.4-0.2,0.7-0.2,1.1-0.2c0.4,0,0.8,0.1,1.2,0.2
			c0.4,0.2,0.7,0.4,1,0.7C78.2,63.4,78.4,63.7,78.6,64.1z"/>
		<path class="st1" d="M91.9,70.3L91,75.1c-0.6-0.2-1.1-0.4-1.6-0.4c-0.9,0-1.6,0.4-2.3,1.2c-0.7,0.8-1.2,2-1.6,3.8l-0.9,7.8h-5.1
			l2.1-17.4h2.7c0.5,0,1,0.1,1.3,0.4c0.3,0.3,0.5,0.7,0.5,1.2v2c0.7-1.2,1.4-2.1,2.2-2.7c0.8-0.6,1.6-1,2.4-1
			C91,70,91.5,70.1,91.9,70.3z"/>
		<path class="st1" d="M104.4,62.3l-1.1,8.8c-0.4-0.4-0.9-0.7-1.5-0.9c-0.6-0.2-1.2-0.4-1.9-0.4c-0.7,0-1.5,0.1-2.2,0.4
			c-0.7,0.3-1.4,0.7-2,1.2c-0.6,0.5-1.2,1.1-1.7,1.8c-0.5,0.7-1,1.5-1.4,2.3c-0.4,0.8-0.7,1.7-0.9,2.7c-0.2,1-0.3,1.9-0.3,3
			c0,1.2,0.1,2.2,0.4,3c0.2,0.8,0.6,1.5,1,2.1c0.4,0.5,0.9,0.9,1.5,1.2c0.6,0.3,1.2,0.4,2,0.4c1.1,0,2.1-0.3,3.1-0.9
			c1-0.6,1.8-1.4,2.6-2.5v1.5c0,0.2,0,0.5,0.1,0.7c0.1,0.2,0.1,0.4,0.3,0.5c0.1,0.1,0.3,0.3,0.5,0.3c0.2,0.1,0.5,0.1,0.8,0.1h2.8
			l3.1-25.2H104.4z M102.3,78.6c-0.2,0.7-0.5,1.4-0.8,2c-0.3,0.6-0.7,1.2-1,1.7c-0.4,0.5-0.7,0.8-1.1,1.1c-0.4,0.3-0.8,0.4-1.1,0.4
			c-0.5,0-1-0.3-1.3-0.7c-0.3-0.5-0.5-1.3-0.5-2.4c0-0.9,0.1-1.7,0.3-2.6c0.2-0.8,0.5-1.6,0.9-2.2c0.4-0.7,0.8-1.2,1.3-1.6
			c0.5-0.4,1.1-0.6,1.7-0.6c0.4,0,0.7,0.1,1.1,0.2c0.4,0.1,0.8,0.3,1.1,0.6L102.3,78.6z"/>
		<path class="st1" d="M127.1,70.1L125,87.5h-2.7c-1.2,0-1.8-0.6-1.8-1.7v-1.1c-0.8,1.1-1.7,1.8-2.7,2.3c-1,0.5-2,0.8-3,0.8
			c-0.6,0-1.2-0.1-1.8-0.4c-0.5-0.2-1-0.6-1.4-1c-0.4-0.5-0.7-1-0.9-1.7c-0.2-0.7-0.3-1.4-0.3-2.3c0-0.2,0-0.4,0-0.6
			c0-0.2,0-0.4,0.1-0.7l1.3-11.1h5.2l-1.3,11.1c0,0.2,0,0.3-0.1,0.5c0,0.2,0,0.3,0,0.4c0,0.6,0.1,1,0.3,1.2c0.2,0.2,0.5,0.4,0.9,0.4
			c0.3,0,0.7-0.1,1.1-0.3c0.4-0.2,0.8-0.5,1.1-0.9c0.4-0.4,0.7-0.8,1-1.4c0.3-0.5,0.6-1.1,0.8-1.8l1.1-9.2H127.1z"/>
		<g>
			<path class="st1" d="M25.4,63.3v0.6h-0.9v2.6h-0.7v-2.6h-0.9v-0.6H25.4z"/>
			<path class="st1" d="M27.4,65.2c0,0.1,0.1,0.1,0.1,0.2c0-0.1,0.1-0.1,0.1-0.2c0-0.1,0.1-0.1,0.1-0.2l0.8-1.6c0,0,0,0,0-0.1
				c0,0,0,0,0.1,0c0,0,0,0,0.1,0c0,0,0.1,0,0.1,0h0.6v3.2h-0.6v-1.8c0-0.1,0-0.2,0-0.3l-0.8,1.6c0,0.1-0.1,0.1-0.1,0.1
				c0,0-0.1,0-0.2,0h-0.1c-0.1,0-0.1,0-0.2,0c0,0-0.1-0.1-0.1-0.1l-0.8-1.6c0,0.1,0,0.1,0,0.2c0,0,0,0.1,0,0.1v1.8h-0.6v-3.2h0.6
				c0,0,0.1,0,0.1,0s0,0,0.1,0c0,0,0,0,0.1,0c0,0,0,0,0,0.1l0.8,1.6C27.3,65,27.3,65.1,27.4,65.2z"/>
		</g>
	</g>
</g>
</svg>
